# xmcd CD database file
#
# Track frame offsets:
#	150
#	13860
#	25310
#	42710
#	50897
#	64375
#	75355
#	89412
#	103675
#	114190
#	127247
#	137105
#	146432
#	158877
#
# Disc length: 2248 seconds
#
# Revision: 5
# Processed by: cddbd v1.5.2PL0 Copyright (c) Steve Scherf et al.
# Submitted via: CDex 1.70beta2
#
DISCID=ca08c60e
DTITLE=Various Artist - Mystery Train - Classic Railroad Songs, Volume 2
DYEAR=1997
DGENRE=Country
TTITLE0=Johnny Cash - Casey Jones
TTITLE1=Whitstein Brothers - Freight Train Boogie
TTITLE2=Steve Goodman - City Of New Orleans
TTITLE3=Sleepy Labeef - Mystery Train
TTITLE4=Carter Family - The Cannonball
TTITLE5=Flatt and Scruggs - Big Black Train
TTITLE6=Delmore Brothers And Wayne Raney - Red Ball To Natchez
TTITLE7=Bob Wills and His Texas Playboys - Take The "A" Train
TTITLE8=Hank Snow - Waiting For A Train
TTITLE9=Patsy Cline - Life's Railway To Heaven
TTITLE10=Tony Rice Unit - Old Train
TTITLE11=Jim and Jesse - Bringin' In The Georgia Mail
TTITLE12=Stanley Brothers - Train 45
TTITLE13=Mary Mccaslin - Last Cannonball
EXTD=YEAR: 1997
EXTT0=
EXTT1=
EXTT2=
EXTT3=
EXTT4=
EXTT5=
EXTT6=
EXTT7=
EXTT8=
EXTT9=
EXTT10=
EXTT11=
EXTT12=
EXTT13=
PLAYORDER=
